{"title":"23 Minutes To Sunrise 2012 DVDRip XViD juggs","uid":8295164,"size":739468425,"categoryP":"video","categoryS":"movies","magnet":"?xt=urn:btih:5ffcef0d5ada9570ad890dd725844b3720ed7f3d&amp;dn=23+Minutes+To+Sunrise+2012+DVDRip+XViD+juggs&amp;tr=udp%3A%2F%2Ftracker.openbittorrent.com%3A80&amp;tr=udp%3A%2F%2Fopen.demonii.com%3A1337&amp;tr=udp%3A%2F%2Ftracker.coppersurfer.tk%3A6969&amp;tr=udp%3A%2F%2Fexodus.desync.com%3A6969","seeders":1,"leechers":0,"uploader":"Gh0stNet","files":3,"time":1364131875,"description":"Source : DVDR IGUANA (Thanks)\n  &lt;a href=&quot;\nhttp://www.imdb.com/title/tt2009402/&quot; rel=&quot;nofollow&quot; target=&quot;_NEW&quot;&gt;\nhttp://www.imdb.com/title/tt2009402/&lt;/a&gt;\n\n\nFile size                                : 699 MiB\nDuration                                 : 1h 18mn\nOverall bit rate                         : 1 239 Kbps\nWriting library                          : VirtualDub build 32842/release\n\nVideo\nID                                       : 0\nFormat                                   : MPEG-4 Visual\nFormat profile                           : Advanced Simple@L5\nFormat settings, BVOP                    : 2\nFormat settings, QPel                    : No\nFormat settings, GMC                     : No warppoints\nFormat settings, Matrix                  : Default (H.263)\nMuxing mode                              : Packed bitstream\nCodec ID                                 : XVID\nCodec ID/Hint                            : XviD\nDuration                                 : 1h 18mn\nBit rate                                 : 1 101 Kbps\nWidth                                    : 640 pixels\nHeight                                   : 352 pixels\nDisplay aspect ratio                     : 16:9\nFrame rate                               : 23.976 fps\nColor space                              : YUV\nChroma subsampling                       : 4:2:0\nBit depth                                : 8 bits\nScan type                                : Progressive\nCompression mode                         : Lossy\nBits/(Pixel*Frame)                       : 0.204\nStream size                              : 622 MiB (89%)\nWriting library                          : XviD 64\n\nAudio\nID                                       : 1\nFormat                                   : MPEG Audio\nFormat version                           : Version 1\nFormat profile                           : Layer 3\nCodec ID                                 : 55\nCodec ID/Hint                            : MP3\nDuration                                 : 1h 18mn\nBit rate mode                            : Constant\nBit rate                                 : 128 Kbps\nChannel(s)                               : 2 channels\nSampling rate                            : 44.1 KHz\nCompression mode                         : Lossy\nStream size                              : 72.3 MiB (10%)\nAlignment                                : Split accross interleaves\nInterleave, duration                     : 42 ms (1.00 video frame)\nInterleave, preload duration             : 500 ms\nWriting library                          : LAME3.99r\nEncoding settings                        : -m s -V 4 -q 3 -lowpass 17 -b 128\n\nPlot\nThey say the darkest hour is just before dawn, and at the Sunrise diner it's very late indeed. Four couples find themselves at an out-of-the-way 24-hour diner, but they are not all that they seem.\n  &lt;a href=&quot;\nhttp://www.shotpix.com/images/26172089177077584314.png&quot; rel=&quot;nofollow&quot; target=&quot;_NEW&quot;&gt;\nhttp://www.shotpix.com/images/26172089177077584314.png&lt;/a&gt;  &lt;a href=&quot;\nhttp://www.shotpix.com/images/98410920556525886825.png&quot; rel=&quot;nofollow&quot; target=&quot;_NEW&quot;&gt;\nhttp://www.shotpix.com/images/98410920556525886825.png&lt;/a&gt;  &lt;a href=&quot;\nhttp://www.shotpix.com/images/35524756460588375485.png&quot; rel=&quot;nofollow&quot; target=&quot;_NEW&quot;&gt;\nhttp://www.shotpix.com/images/35524756460588375485.png&lt;/a&gt;\t","torrent":{"xt":"urn:btih:5ffcef0d5ada9570ad890dd725844b3720ed7f3d","amp;dn":"23+Minutes+To+Sunrise+2012+DVDRip+XViD+juggs","amp;tr":["udp%3A%2F%2Ftracker.openbittorrent.com%3A80","udp%3A%2F%2Fopen.demonii.com%3A1337","udp%3A%2F%2Ftracker.coppersurfer.tk%3A6969","udp%3A%2F%2Fexodus.desync.com%3A6969"],"infoHash":"5ffcef0d5ada9570ad890dd725844b3720ed7f3d","infoHashBuffer":{"type":"Buffer","data":[95,252,239,13,90,218,149,112,173,137,13,215,37,132,75,55,32,237,127,61]},"announce":[],"urlList":[]}}